<svg width="25" height="25" viewBox="0 0 25 25" fill="none" xmlns="http://www.w3.org/2000/svg">
<g clip-path="url(#clip0_67_584)">
<path d="M6.89583 11.2396C8.39583 14.1875 10.8125 16.5937 13.7604 18.1042L16.0521 15.8125C16.3333 15.5312 16.75 15.4375 17.1146 15.5625C18.2812 15.9479 19.5417 16.1562 20.8333 16.1562C21.4062 16.1562 21.875 16.625 21.875 17.1979V20.8333C21.875 21.4062 21.4062 21.875 20.8333 21.875C11.0521 21.875 3.125 13.9479 3.125 4.16667C3.125 3.59375 3.59375 3.125 4.16667 3.125H7.8125C8.38542 3.125 8.85417 3.59375 8.85417 4.16667C8.85417 5.46875 9.0625 6.71875 9.44792 7.88542C9.5625 8.25 9.47917 8.65625 9.1875 8.94792L6.89583 11.2396Z" fill="#999999"/>
</g>
<defs>
<clipPath id="clip0_67_584">
<rect width="25" height="25" fill="white"/>
</clipPath>
</defs>
</svg>
