<svg width="219" height="211" viewBox="0 0 219 211" fill="none" xmlns="http://www.w3.org/2000/svg">
<rect width="219" height="211" rx="5" fill="#D9D9D9"/>
<g clip-path="url(#clip0_404_4)">
<path d="M139 55H122.28C120.6 50.36 116.2 47 111 47C105.8 47 101.4 50.36 99.72 55H83C78.6 55 75 58.6 75 63V119C75 123.4 78.6 127 83 127H139C143.4 127 147 123.4 147 119V63C147 58.6 143.4 55 139 55ZM111 55C113.2 55 115 56.8 115 59C115 61.2 113.2 63 111 63C108.8 63 107 61.2 107 59C107 56.8 108.8 55 111 55ZM111 71C117.64 71 123 76.36 123 83C123 89.64 117.64 95 111 95C104.36 95 99 89.64 99 83C99 76.36 104.36 71 111 71ZM135 119H87V113.4C87 105.4 103 101 111 101C119 101 135 105.4 135 113.4V119Z" fill="white"/>
</g>
<path d="M53.002 154.73V156.186H61.22V154.73H53.002ZM60.1 154.73V155.878C60.1 156.998 60.1 158.09 59.764 159.588L61.598 159.756C61.934 158.23 61.934 157.012 61.934 155.878V154.73H60.1ZM60.66 156.914L52.638 157.082L52.848 158.496L60.66 158.188V156.914ZM51.588 159.28V160.736H63.264V159.28H51.588ZM52.848 161.492V162.892H60.156V163.606H52.862V166.322H54.71V164.922H62.004V161.492H52.848ZM52.862 165.692V167.106H62.438V165.692H52.862ZM73.3429 154.282V162.248H75.2189V154.282H73.3429ZM66.3709 162.808V164.306H73.3429V167.246H75.2189V162.808H66.3709ZM65.1109 160.218V161.716H66.2449C68.8349 161.716 70.5569 161.674 72.4889 161.338L72.2789 159.868C70.4029 160.162 68.7649 160.218 66.2449 160.218H65.1109ZM65.0969 154.996V156.48H69.2269V157.6H65.1109V160.918H66.9449V158.986H71.0609V154.996H65.0969ZM77.3038 156.228V157.712H83.5058V156.228H77.3038ZM80.4258 158.286C78.7878 158.286 77.5838 159.56 77.5838 161.38C77.5838 163.186 78.7878 164.46 80.4258 164.46C82.0778 164.46 83.2678 163.186 83.2678 161.38C83.2678 159.56 82.0778 158.286 80.4258 158.286ZM80.4258 159.84C81.1258 159.84 81.6298 160.4 81.6298 161.38C81.6298 162.36 81.1258 162.906 80.4258 162.906C79.7258 162.906 79.2358 162.36 79.2358 161.38C79.2358 160.4 79.7258 159.84 80.4258 159.84ZM86.6838 154.282V167.246H88.4618V154.282H86.6838ZM85.1298 159.546V161.044H87.2718V159.546H85.1298ZM83.9678 154.52V166.7H85.7038V154.52H83.9678ZM79.5158 154.632V157.166H81.3498V154.632H79.5158ZM96.7347 158.328V159.826H100.151V158.328H96.7347ZM93.2067 155.276V157.152C93.2067 159.616 92.2267 162.122 90.0147 163.144L91.1767 164.642C93.6127 163.424 94.7187 160.414 94.7187 157.152V155.276H93.2067ZM93.5987 155.276V157.152C93.5987 160.386 94.6207 163.242 97.0567 164.418L98.1627 162.934C96.0207 161.982 95.0827 159.616 95.0827 157.152V155.276H93.5987ZM99.2267 154.268V167.274H101.075V154.268H99.2267ZM108.995 155.276V157.166C108.995 159.574 108.001 162.066 105.817 163.088L106.937 164.586C109.387 163.382 110.507 160.372 110.507 157.166V155.276H108.995ZM109.373 155.276V157.166C109.373 160.274 110.395 163.158 112.733 164.348L113.853 162.864C111.781 161.856 110.857 159.49 110.857 157.166V155.276H109.373ZM114.371 154.282V167.246H116.247V154.282H114.371ZM115.827 159.266V160.82H118.123V159.266H115.827ZM122.112 155.724V156.816C122.112 158.454 121.174 160.134 119.018 160.834L119.97 162.29C122.462 161.478 123.652 159.266 123.652 156.816V155.724H122.112ZM122.49 155.724V156.816C122.49 159.168 123.666 161.282 126.102 162.052L127.054 160.61C124.94 159.938 124.016 158.356 124.016 156.816V155.724H122.49ZM119.508 155.206V156.676H126.564V155.206H119.508ZM127.866 154.296V163.648H129.742V154.296H127.866ZM121.104 165.538V167.022H130.064V165.538H121.104ZM121.104 162.808V166.28H122.966V162.808H121.104ZM141.401 157.138V158.636H144.649V157.138H141.401ZM138.433 154.814C136.473 154.814 135.003 156.116 135.003 157.908C135.003 159.714 136.473 161.002 138.433 161.002C140.379 161.002 141.849 159.714 141.849 157.908C141.849 156.116 140.379 154.814 138.433 154.814ZM138.433 156.368C139.385 156.368 140.071 156.942 140.071 157.908C140.071 158.874 139.385 159.462 138.433 159.462C137.481 159.462 136.781 158.874 136.781 157.908C136.781 156.942 137.481 156.368 138.433 156.368ZM143.837 154.282V161.254H145.699V154.282H143.837ZM137.089 161.814V167.106H145.699V161.814H143.851V163.046H138.937V161.814H137.089ZM138.937 164.474H143.851V165.622H138.937V164.474ZM147.742 164.306V165.818H159.474V164.306H147.742ZM152.656 161.856V164.922H154.518V161.856H152.656ZM149.058 155.122V156.592H156.31V157.978H149.086V161.618H150.934V159.434H158.158V155.122H149.058ZM149.086 160.876V162.374H158.452V160.876H149.086ZM161.979 160.26V161.744H171.093V160.26H161.979ZM160.621 164.166V165.692H172.353V164.166H160.621ZM161.979 155.346V160.876H163.827V156.858H170.995V155.346H161.979Z" fill="white"/>
<defs>
<clipPath id="clip0_404_4">
<rect width="96" height="96" fill="white" transform="translate(63 43)"/>
</clipPath>
</defs>
</svg>
